<svg xmlns="http://www.w3.org/2000/svg" xmlns:xlink="http://www.w3.org/1999/xlink" width="1080" zoomAndPan="magnify" viewBox="0 0 810 809.999993" height="1080" preserveAspectRatio="xMidYMid meet" version="1.0"><defs><g/><clipPath id="fdccc44197"><path d="M 40.3125 58 L 769 58 L 769 512 L 40.3125 512 Z M 40.3125 58 " clip-rule="nonzero"/></clipPath><clipPath id="e7a2cee983"><path d="M 225 193 L 642 193 L 642 749.605469 L 225 749.605469 Z M 225 193 " clip-rule="nonzero"/></clipPath></defs><g clip-path="url(#fdccc44197)"><path fill="#bfe063" d="M 461.199219 491.816406 C 461.199219 491.816406 322.359375 496.265625 192.414062 384.601562 C 62.46875 272.9375 42.457031 61.46875 40.976562 62.949219 C 39.492188 64.429688 237.625 24.65625 382.636719 156.578125 C 527.652344 288.5 461.199219 491.816406 461.199219 491.816406 Z M 730.722656 351.25 C 772.226562 268.488281 768.765625 162.753906 768.765625 162.753906 C 768.765625 162.753906 635.117188 161.765625 561.003906 253.417969 C 465.148438 371.507812 504.675781 511.828125 504.675781 511.828125 C 504.675781 511.828125 670.691406 470.816406 730.722656 351.25 Z M 730.722656 351.25 " fill-opacity="1" fill-rule="nonzero"/></g><g clip-path="url(#e7a2cee983)"><path fill="#012452" d="M 637.832031 283.558594 C 633.140625 278.617188 625.234375 278.617188 620.292969 283.3125 C 541.980469 360.390625 503.441406 452.042969 484.667969 545.425781 C 463.914062 439.691406 405.859375 279.113281 243.058594 194.625 C 236.882812 191.410156 229.46875 193.882812 226.507812 199.8125 C 223.292969 205.742188 225.765625 213.398438 231.695312 216.363281 C 458.972656 334.449219 470.832031 611.386719 471.328125 644.738281 C 468.855469 676.113281 468.113281 706.992188 467.867188 737.132812 C 467.867188 744.046875 473.304688 749.484375 480.21875 749.484375 C 486.890625 749.484375 492.570312 744.046875 492.570312 737.132812 C 492.820312 708.96875 493.558594 680.3125 495.535156 651.160156 C 495.785156 650.171875 496.03125 649.183594 496.03125 648.195312 L 496.03125 645.476562 C 505.417969 524.671875 537.285156 399.175781 637.585938 300.605469 C 642.527344 296.160156 642.527344 288.5 637.832031 283.558594 Z M 637.832031 283.558594 " fill-opacity="1" fill-rule="nonzero"/></g><g fill="#012452" fill-opacity="1"><g transform="translate(221.172036, 787.401396)"><g><path d="M 82.109375 -128.453125 C 79.671875 -127.234375 77.082031 -126.132812 74.34375 -125.15625 C 71.613281 -124.1875 68.664062 -123.398438 65.5 -122.796875 C 68.664062 -122.066406 71.613281 -121.242188 74.34375 -120.328125 C 77.082031 -119.421875 79.671875 -118.296875 82.109375 -116.953125 L 164.03125 -75.53125 C 166.46875 -74.320312 168.171875 -72.925781 169.140625 -71.34375 C 170.109375 -69.757812 170.59375 -67.992188 170.59375 -66.046875 L 170.59375 -42.703125 L 29.5625 -116.046875 L 29.5625 -129.546875 L 170.59375 -202.71875 L 170.59375 -179.546875 C 170.59375 -177.472656 170.109375 -175.675781 169.140625 -174.15625 C 168.171875 -172.632812 166.46875 -171.265625 164.03125 -170.046875 Z M 82.109375 -128.453125 "/></g></g></g><g fill="#012452" fill-opacity="1"><g transform="translate(432.799003, 787.401396)"><g/></g></g><g fill="#012452" fill-opacity="1"><g transform="translate(526.206768, 787.401396)"><g><path d="M 182.09375 -129.546875 L 182.09375 -116.046875 L 41.046875 -42.703125 L 41.046875 -66.046875 C 41.046875 -67.992188 41.53125 -69.757812 42.5 -71.34375 C 43.476562 -72.925781 45.1875 -74.320312 47.625 -75.53125 L 129.546875 -116.953125 C 131.984375 -118.296875 134.566406 -119.421875 137.296875 -120.328125 C 140.035156 -121.242188 142.925781 -122.066406 145.96875 -122.796875 C 139.757812 -124.128906 134.285156 -126.015625 129.546875 -128.453125 L 47.625 -170.046875 C 45.1875 -171.265625 43.476562 -172.632812 42.5 -174.15625 C 41.53125 -175.675781 41.046875 -177.472656 41.046875 -179.546875 L 41.046875 -202.71875 Z M 182.09375 -129.546875 "/></g></g></g></svg>